Coordinates
version=1
nRows=15
nColumns=42
inDegrees=yes

Units are S.I. units (second, meters, Newtons, ...)
If the header above contains a line with 'inDegrees', this indicates whether rotational values are in degrees (yes) or radians (no).

endheader
time	pelvis_tilt	pelvis_list	pelvis_rotation	pelvis_tx	pelvis_ty	pelvis_tz	hip_flexion_r	hip_adduction_r	hip_rotation_r	knee_angle_r	knee_adduction_r	knee_angle_r_beta	ankle_angle_r	subtalar_angle_r	mtp_angle_r	hip_flexion_l	hip_adduction_l	hip_rotation_l	knee_angle_l	knee_adduction_l	knee_angle_l_beta	ankle_angle_l	subtalar_angle_l	mtp_angle_l	lumbar_extension	lumbar_bending	lumbar_rotation	arm_flex_r	arm_add_r	arm_rot_r	elbow_flex_r	pro_sup_r	wrist_flex_r	wrist_dev_r	arm_flex_l	arm_add_l	arm_rot_l	elbow_flex_l	pro_sup_l	wrist_flex_l	wrist_dev_l
      2.15000000	     20.22503037	     -1.16990622	      4.16878055	      0.42507609	      0.94384087	     -0.34746333	    -10.09624522	      3.50292624	    -24.08740809	     20.51118010	     -4.21052045	      0.35798763	     11.78679059	     35.50807034	     -7.51436362	    -23.60124648	     -0.21436860	     -5.42632858	     44.77439725	      6.91841453	      0.78146065	     11.20310386	     -9.68143125	     -7.51436362	    -34.57120104	     -1.06176622	     -0.22428178	      6.19924477	     -9.19024838	    -31.11332806	     23.94525355	     90.00000001	      0.00000000	      0.00000000	     -0.29796229	    -21.36401907	      6.35288678	     72.72309210	     90.00000001	      0.00000000	      0.00000000
      2.16000000	     20.05572254	     -1.25588328	      4.36629336	      0.42982117	      0.94395902	     -0.34856587	    -10.34132594	      3.59805507	    -23.75533300	     20.35488705	     -3.99785527	      0.35525980	     12.01360641	     35.08262797	     -7.51384256	    -22.03374216	     -0.89420348	     -5.79964560	     47.23770419	      6.81316657	      0.82445347	     10.97213297	    -11.05571564	     -7.51384256	    -34.41476315	     -0.93372381	     -0.23311816	      6.74959096	     -9.23455816	    -30.71335488	     24.42091144	     90.00000001	      0.00000000	      0.00000000	     -0.18900719	    -21.36850327	      6.34570661	     72.95598153	     90.00000001	      0.00000000	      0.00000000
      2.17000000	     19.95109280	     -1.24649405	      4.60144593	      0.43457935	      0.94417683	     -0.34990196	    -10.70645847	      3.56259290	    -23.36702421	     20.15601148	     -3.67169339	      0.35178876	     12.28099953	     34.71551502	     -7.51354621	    -20.55768623	     -1.41222138	     -6.14225962	     49.29522986	      6.46672038	      0.86036407	     11.00247568	    -12.29258374	     -7.51354621	    -34.34388122	     -0.86580301	     -0.32429552	      7.31711949	     -9.27849991	    -30.33210094	     24.95018195	     90.00000001	      0.00000000	      0.00000000	     -0.09081132	    -21.40222553	      6.37868387	     73.22734672	     90.00000001	      0.00000000	      0.00000000
      2.18000000	     19.81463412	     -1.38702164	      4.72824147	      0.43915936	      0.94430560	     -0.35089557	    -10.96412254	      3.76385618	    -22.55046860	     20.00765294	     -3.42350041	      0.34919942	     12.44900600	     33.46624992	     -7.51184259	    -18.99989077	     -2.12722194	     -6.48963291	     51.15826569	      6.31022529	      0.89288018	     10.86750323	    -14.14180364	     -7.51184259	    -34.24261505	     -0.72376097	     -0.20061344	      7.50781486	     -9.55318997	    -27.64599259	     25.91487461	     90.00000001	      0.00000000	      0.00000000	      0.09291490	    -21.33761295	      6.36940037	     73.37694630	     90.00000001	      0.00000000	      0.00000000
      2.19000000	     19.70243472	     -1.40080648	      4.88283509	      0.44381292	      0.94445155	     -0.35207917	    -11.25752192	      3.78583510	    -22.08181007	     19.87730553	     -3.23160468	      0.34692443	     12.70541512	     33.04815867	     -7.51154922	    -17.46688741	     -2.63135113	     -6.98232799	     52.64646193	      5.74104348	      0.91885410	     11.18158728	    -15.08695460	     -7.51154922	    -34.17857265	     -0.68150044	     -0.18857992	      8.09748125	     -9.60168785	    -27.27065950	     26.52256315	     90.00000001	      0.00000000	      0.00000000	      0.21923213	    -21.34883424	      6.42707408	     73.61202610	     90.00000001	      0.00000000	      0.00000000
      2.20000000	     19.72390931	     -1.31775020	      5.01284063	      0.44850175	      0.94488158	     -0.35342226	    -11.74216739	      3.66406894	    -21.70067945	     19.71615558	     -2.97474572	      0.34411183	     12.94384820	     32.67039063	     -7.51138009	    -16.16499654	     -2.97114616	     -7.33424867	     53.58343442	      5.17624925	      0.93520736	     11.79178758	    -15.87246704	     -7.51138009	    -34.25617972	     -0.72503620	     -0.17639626	      8.72677779	     -9.65389691	    -26.92695103	     27.05534019	     90.00000001	      0.00000000	      0.00000000	      0.40123568	    -21.32717290	      6.49755925	     73.75518827	     90.00000001	      0.00000000	      0.00000000
      2.21000000	     19.61034153	     -1.34862582	      5.11481488	      0.45301096	      0.94506102	     -0.35457497	    -12.03852419	      3.70538775	    -21.09580408	     19.54500977	     -2.75943431	      0.34112477	     13.18494571	     32.00671693	     -7.51116756	    -14.61319747	     -3.42623983	     -7.78201302	     54.38584586	      4.52418322	      0.94921208	     12.28565009	    -16.54242099	     -7.51116756	    -34.21385757	     -0.69356957	     -0.09926610	      9.32162537	     -9.71781635	    -26.35748423	     27.75185694	     90.00000001	      0.00000000	      0.00000000	      0.56450144	    -21.30230039	      6.59105925	     73.91779432	     90.00000001	      0.00000000	      0.00000000
      2.22000000	     19.60315548	     -1.51070744	      5.14985405	      0.45739192	      0.94549854	     -0.35554136	    -12.58796437	      3.95761469	    -19.30096700	     19.08341513	     -2.16918679	      0.33306843	     13.06949866	     29.23492006	     -7.51008458	    -13.18888769	     -4.08186577	     -8.18539007	     54.86457944	      4.08729994	      0.95756755	     12.77811182	    -16.88750165	     -7.51008458	    -34.31442369	     -0.57076216	      0.14517796	      9.43722555	    -10.18621165	    -22.82322668	     29.06072606	     90.00000001	      0.00000000	      0.00000000	      0.79607149	    -21.24644903	      6.68969056	     73.96885157	     90.00000001	      0.00000000	      0.00000000
      2.23000000	     19.62822930	     -1.37739866	      5.16958525	      0.46187253	      0.94598391	     -0.35680113	    -13.02627688	      3.79044820	    -19.11238482	     18.95209321	     -2.11459655	      0.33077643	     13.26326276	     29.00880898	     -7.50996086	    -11.89428925	     -4.26974957	     -8.30686868	     54.81379872	      3.62889600	      0.95668126	     13.37763557	    -17.09580337	     -7.50996086	    -34.44623508	     -0.72546116	      0.22479284	     10.16865820	    -10.21006817	    -22.61298243	     29.56559559	     90.00000001	      0.00000000	      0.00000000	      0.99610013	    -21.20206608	      6.75559126	     74.04478978	     90.00000001	      0.00000000	      0.00000000
      2.24000000	     19.55388634	     -1.29232787	      5.20492990	      0.46627576	      0.94633083	     -0.35811774	    -13.35861446	      3.67140935	    -18.81174409	     18.79450510	     -2.02559262	      0.32802600	     13.46976665	     28.71659888	     -7.50983052	    -10.46959212	     -4.44963437	     -8.34813706	     54.47992388	      3.13346336	      0.95085405	     13.88949372	    -17.18428662	     -7.50983052	    -34.48312445	     -0.82314944	      0.30027862	     10.88194904	    -10.24489499	    -22.32706930	     30.15974045	     90.00000001	      0.00000000	      0.00000000	      1.17581903	    -21.16080404	      6.85141760	     74.12079691	     90.00000001	      0.00000000	      0.00000000
      2.25000000	     19.46257725	     -1.21174221	      5.21534691	      0.47064525	      0.94662967	     -0.35945457	    -13.67137525	      3.56030372	    -18.43922358	     18.61928721	     -1.94244185	      0.32496787	     13.67545450	     28.35754755	     -7.50969072	     -9.03251570	     -4.58451537	     -8.27591988	     53.90557405	      2.67585211	      0.94082975	     14.29857516	    -17.13596649	     -7.50969072	    -34.50197444	     -0.92762392	      0.40706855	     11.56663964	    -10.29272954	    -21.93920793	     30.81192530	     90.00000001	      0.00000000	      0.00000000	      1.33426246	    -21.10968381	      6.97001066	     74.16814698	     90.00000001	      0.00000000	      0.00000000
      2.26000000	     19.60365802	     -1.08410559	      5.14923153	      0.47496442	      0.94743007	     -0.36088281	    -14.52506634	      3.37253290	    -16.77376361	     17.91889855	     -1.23031491	      0.31274378	     13.54690733	     26.20098755	     -7.50873256	     -7.96915632	     -4.61850140	     -8.05110633	     52.88170857	      2.40354484	      0.92295993	     14.35181150	    -17.21421590	     -7.50873256	    -34.81107279	     -1.08344597	      0.55716025	     11.66592198	    -10.90554410	    -17.95377921	     32.41562323	     90.00000001	      0.00000000	      0.00000000	      1.56516655	    -21.07915433	      7.18843667	     74.20480916	     90.00000001	      0.00000000	      0.00000000
      2.27000000	     19.43057213	     -1.08879507	      5.13943696	      0.47929578	      0.94752358	     -0.36220988	    -14.67514790	      3.35357779	    -16.63047908	     17.85878512	     -1.28736342	      0.31169460	     13.69935073	     25.91828019	     -7.50860733	     -6.47740296	     -4.78400655	     -7.82118837	     51.84979035	      2.03968675	      0.90494956	     14.63459079	    -16.88694570	     -7.50860733	    -34.73267584	     -1.12664753	      0.70148319	     12.43484456	    -10.92011648	    -17.76499572	     32.94851977	     90.00000001	      0.00000000	      0.00000000	      1.69997259	    -20.99980696	      7.26927761	     74.24190976	     90.00000001	      0.00000000	      0.00000000
      2.28000000	     19.57193544	     -0.75564373	      5.06412943	      0.48374472	      0.94834152	     -0.36382170	    -15.43437831	      2.89995842	    -16.12518535	     17.36195068	     -1.00455606	      0.30302320	     13.88444643	     25.68686066	     -7.50832960	     -5.60228531	     -4.43211892	     -7.07197069	     50.13233395	      1.92320894	      0.87497429	     14.64829129	    -17.00212610	     -7.50832960	    -35.03380972	     -1.48621591	      0.74359340	     13.04742751	    -11.01364454	    -16.86860569	     33.82249222	     90.00000001	      0.00000000	      0.00000000	      1.88954905	    -20.99549705	      7.47857971	     74.19634820	     90.00000001	      0.00000000	      0.00000000
      2.29000000	     19.58702972	     -0.56218425	      5.02085733	      0.48823605	      0.94883540	     -0.36551687	    -15.98805969	      2.60781016	    -15.71127277	     16.97816799	     -0.80767374	      0.29632493	     14.00240028	     25.29357932	     -7.50804175	     -4.57029463	     -4.26542132	     -6.50697418	     48.37414893	      1.76144739	      0.84428817	     14.57553563	    -16.96262875	     -7.50804175	    -35.16713054	     -1.68893766	      0.79975776	     13.66713189	    -11.17073449	    -15.80484602	     34.59552963	     90.00000001	      0.00000000	      0.00000000	      2.00620287	    -20.93381400	      7.62163607	     74.18044119	     90.00000001	      0.00000000	      0.00000000
